<svg width="1920" height="1081" viewBox="0 0 1920 1081" fill="none" xmlns="http://www.w3.org/2000/svg">
<g style="mix-blend-mode:lighten" clip-path="url(#clip0)">
<rect width="163.803" height="163.803" rx="16" transform="matrix(0.816642 -0.577145 0.965926 0.258819 164.136 525.397)" fill="#FDE5D1"/>
<rect width="163.803" height="163.803" rx="16" transform="matrix(-0.816642 0.577145 -0.965926 -0.258819 136.487 530.919)" fill="#FEEDE9"/>
<rect width="163.803" height="163.803" rx="16" transform="matrix(-0.816642 0.577145 -0.965926 -0.258819 1386.57 865.876)" fill="#FEEDE9"/>
<rect width="163.803" height="163.803" rx="16" transform="matrix(-0.816642 0.577145 -0.965926 -0.258819 2011.6 1033.36)" fill="#FFFAF3"/>
<rect width="163.803" height="163.803" rx="16" transform="matrix(-0.816642 0.577145 -0.965926 -0.258819 320.424 1010.14)" fill="#FFF9EF"/>
<rect width="163.803" height="163.803" rx="16" transform="matrix(0.816642 -0.577145 0.965926 0.258819 936.21 588.963)" fill="#FDE1CE"/>
<rect width="163.803" height="163.803" rx="16" transform="matrix(0.816642 -0.577145 0.965926 0.258819 1561.25 756.441)" fill="#FDE5D1"/>
<rect width="163.803" height="163.803" rx="16" transform="matrix(-0.816642 0.577145 -0.965926 -0.258819 1239.53 969.79)" fill="#FFF9EF"/>
<rect width="343.85" height="163.803" rx="16" transform="matrix(0.816642 -0.577145 0.965926 0.258819 336.741 571.647)" fill="#FFFAF1"/>
<rect width="343.85" height="453.503" rx="16" transform="matrix(0.816642 -0.577145 0.965926 0.258819 1586.82 906.604)" fill="#FFFAF3"/>
<rect width="343.851" height="163.803" rx="16" transform="matrix(-0.816642 0.577145 -0.965926 -0.258819 588.921 652.148)" fill="#FDE1CE"/>
<rect width="343.851" height="163.803" rx="16" transform="matrix(-0.816642 0.577145 -0.965926 -0.258819 1213.96 819.627)" fill="#FDE1CE"/>
<rect width="343.851" height="163.803" rx="16" transform="matrix(-0.816642 0.577145 -0.965926 -0.258819 1839 987.106)" fill="#FDE5D1"/>
<rect width="343.85" height="163.803" rx="16" transform="matrix(-0.816642 0.577145 -0.965926 -0.258819 147.818 963.889)" fill="#FBD1CD"/>
<rect width="163.803" height="274.81" rx="16" transform="matrix(0.816642 -0.577145 0.965926 0.258819 509.347 617.896)" fill="#FEEDE9"/>
<rect width="163.803" height="274.81" rx="16" transform="matrix(0.816642 -0.577145 0.965926 0.258819 1134.39 785.375)" fill="#FFD9BC"/>
<rect width="163.803" height="274.81" rx="16" transform="matrix(-0.816642 0.577145 -0.965926 -0.258819 1041.36 773.378)" fill="#FBD1CD"/>
<rect width="163.803" height="274.81" rx="16" transform="matrix(-0.816642 0.577145 -0.965926 -0.258819 1666.39 940.856)" fill="#FBE7CB"/>
<rect width="163.803" height="274.81" rx="16" transform="matrix(-0.816642 0.577145 -0.965926 -0.258819 600.252 1085.12)" fill="#FDE5D1"/>
<rect width="163.803" height="342.497" rx="16" transform="matrix(0.816642 -0.577145 0.965926 0.258819 -166.835 150.092)" fill="#F5E8D3"/>
<rect width="163.803" height="342.497" rx="16" transform="matrix(0.816642 -0.577145 0.965926 0.258819 1708.28 652.528)" fill="#FFF8EB"/>
<rect width="163.803" height="342.497" rx="16" transform="matrix(-0.816642 0.577145 -0.965926 -0.258819 467.458 906.225)" fill="#FEEDE9"/>
<rect width="163.803" height="342.496" rx="16" transform="matrix(-0.816642 0.577145 -0.965926 -0.258819 1092.5 1073.7)" fill="#FFD9BC"/>
<rect width="343.85" height="274.81" rx="16" transform="matrix(0.816642 -0.577145 0.965926 0.258819 31.3413 346.504)" fill="#FDE1CE"/>
<rect width="343.85" height="274.81" rx="16" transform="matrix(-0.816642 0.577145 -0.965926 -0.258819 269.282 709.812)" fill="#FBD1CD"/>
<rect width="343.85" height="274.81" rx="16" transform="matrix(-0.816642 0.577145 -0.965926 -0.258819 894.321 877.291)" fill="#FFFBF3"/>
<rect width="343.85" height="274.81" rx="16" transform="matrix(-0.816642 0.577145 -0.965926 -0.258819 1519.36 1044.77)" fill="#FFFAF3"/>
<line x1="839.749" y1="782.934" x2="839.749" y2="582.209" stroke="white" stroke-width="4" stroke-dasharray="5 5"/>
<rect width="48.2005" height="81.9823" rx="5" transform="matrix(-0.817625 0.575751 -0.965483 -0.260467 901.029 579.01)" stroke="white" stroke-width="4"/>
<rect width="11.1455" height="12.378" rx="5.57277" transform="matrix(-0.817625 0.575751 -0.965483 -0.260467 852.28 580.613)" fill="white"/>
<line x1="840.17" y1="590.43" x2="840.17" y2="493.619" stroke="url(#paint0_linear)" stroke-width="4" stroke-dasharray="5 5"/>
<line x1="308.17" y1="263.381" x2="308.17" y2="166.569" stroke="white" stroke-width="4" stroke-dasharray="5 5"/>
<rect width="137.774" height="234.335" rx="15" transform="matrix(-0.817625 0.575751 -0.965483 -0.260467 473.913 157.426)" stroke="white" stroke-width="4"/>
<line x1="308.17" y1="166.569" x2="308.17" y2="69.7583" stroke="url(#paint1_linear)" stroke-width="4" stroke-dasharray="5 5"/>
<rect width="11.1455" height="12.378" rx="5.57277" transform="matrix(-0.817625 0.575751 -0.965483 -0.260467 320.702 164.973)" fill="white"/>
<line x1="230.263" y1="621.676" x2="230.263" y2="524.865" stroke="url(#paint2_linear)" stroke-width="4" stroke-dasharray="5 5"/>
<line x1="230.263" y1="909.172" x2="230.263" y2="616.856" stroke="white" stroke-width="4" stroke-dasharray="5 5"/>
<rect width="89.5885" height="152.378" rx="12" transform="matrix(-0.817625 0.575751 -0.965483 -0.260467 336.742 610.91)" stroke="white" stroke-width="4"/>
<rect width="11.1455" height="12.378" rx="5.57277" transform="matrix(-0.817625 0.575751 -0.965483 -0.260467 242.794 615.259)" fill="white"/>
<line x1="1710.95" y1="658.82" x2="1710.95" y2="562.009" stroke="url(#paint3_linear)" stroke-width="4" stroke-dasharray="5 5"/>
<line x1="1710.95" y1="730.37" x2="1710.95" y2="654" stroke="white" stroke-width="4" stroke-dasharray="5 5"/>
<rect width="52.6453" height="89.5423" rx="9" transform="matrix(-0.817625 0.575751 -0.965483 -0.260467 1771.99 650.506)" stroke="white" stroke-width="4"/>
<rect width="11.1455" height="12.378" rx="5.57277" transform="matrix(-0.817625 0.575751 -0.965483 -0.260467 1723.48 652.403)" fill="white"/>
<line x1="1085.91" y1="924.311" x2="1085.91" y2="827.5" stroke="url(#paint4_linear)" stroke-width="4" stroke-dasharray="5 5"/>
<line x1="1085.91" y1="995.861" x2="1085.91" y2="919.491" stroke="white" stroke-width="4" stroke-dasharray="5 5"/>
<rect width="52.6453" height="89.5423" rx="9" transform="matrix(-0.817625 0.575751 -0.965483 -0.260467 1146.95 915.997)" stroke="white" stroke-width="4"/>
<rect width="11.1455" height="12.378" rx="5.57277" transform="matrix(-0.817625 0.575751 -0.965483 -0.260467 1098.44 917.894)" fill="white"/>
<line x1="1085.91" y1="309.031" x2="1085.91" y2="212.22" stroke="url(#paint5_linear)" stroke-width="4" stroke-dasharray="5 5"/>
<line x1="1085.91" y1="562.009" x2="1085.91" y2="304.21" stroke="white" stroke-width="4" stroke-dasharray="5 5"/>
<rect width="52.6453" height="89.5423" rx="9" transform="matrix(-0.817625 0.575751 -0.965483 -0.260467 1146.95 300.716)" stroke="white" stroke-width="4"/>
<rect width="11.1455" height="12.378" rx="5.57277" transform="matrix(-0.817625 0.575751 -0.965483 -0.260467 1098.44 302.614)" fill="white"/>
</g>
<defs>
<linearGradient id="paint0_linear" x1="842.17" y1="582.696" x2="842.17" y2="493.619" gradientUnits="userSpaceOnUse">
<stop offset="0.606996" stop-color="white"/>
<stop offset="1" stop-color="white" stop-opacity="0"/>
</linearGradient>
<linearGradient id="paint1_linear" x1="310.17" y1="158.836" x2="310.17" y2="69.7583" gradientUnits="userSpaceOnUse">
<stop offset="0.606996" stop-color="white"/>
<stop offset="1" stop-color="white" stop-opacity="0"/>
</linearGradient>
<linearGradient id="paint2_linear" x1="232.263" y1="613.942" x2="232.263" y2="524.865" gradientUnits="userSpaceOnUse">
<stop offset="0.606996" stop-color="white"/>
<stop offset="1" stop-color="white" stop-opacity="0"/>
</linearGradient>
<linearGradient id="paint3_linear" x1="1712.95" y1="651.086" x2="1712.95" y2="562.009" gradientUnits="userSpaceOnUse">
<stop offset="0.606996" stop-color="white"/>
<stop offset="1" stop-color="white" stop-opacity="0"/>
</linearGradient>
<linearGradient id="paint4_linear" x1="1087.91" y1="916.577" x2="1087.91" y2="827.5" gradientUnits="userSpaceOnUse">
<stop offset="0.606996" stop-color="white"/>
<stop offset="1" stop-color="white" stop-opacity="0"/>
</linearGradient>
<linearGradient id="paint5_linear" x1="1087.91" y1="301.297" x2="1087.91" y2="212.22" gradientUnits="userSpaceOnUse">
<stop offset="0.606996" stop-color="white"/>
<stop offset="1" stop-color="white" stop-opacity="0"/>
</linearGradient>
<clipPath id="clip0">
<rect width="2583" height="1080" fill="white" transform="translate(-277 0.5)"/>
</clipPath>
</defs>
</svg>
